<svg xmlns="http://www.w3.org/2000/svg" version="1.1" xmlns:xlink="http://www.w3.org/1999/xlink" xmlns:svgjs="http://svgjs.dev/svgjs" viewBox="0 0 800 800"><defs><linearGradient x1="50%" y1="0%" x2="50%" y2="100%" id="ffflurry-grad" gradientTransform="rotate(270)"><stop stop-color="hsl(238, 82%, 13%)" stop-opacity="1" offset="0%"></stop><stop stop-color="hsl(105, 69%, 40%)" stop-opacity="1" offset="45%"></stop><stop stop-color="hsl(105, 69%, 60%)" stop-opacity="1" offset="100%"></stop></linearGradient></defs><rect width="100%" height="100%" fill="hsl(238, 82%, 13%)"></rect><g fill="url(#ffflurry-grad)"><rect width="464" height="3" x="530" y="498.5" rx="1.5" transform="rotate(45, 762, 500)" opacity="0.50"></rect><rect width="166" height="3" x="472" y="495.5" rx="1.5" transform="rotate(45, 555, 497)" opacity="0.12"></rect><rect width="609" height="3" x="63.5" y="170.5" rx="1.5" transform="rotate(45, 368, 172)" opacity="0.61"></rect><rect width="127" height="3" x="392.5" y="365.5" rx="1.5" transform="rotate(45, 456, 367)" opacity="0.37"></rect><rect width="169" height="3" x="139.5" y="38.5" rx="1.5" transform="rotate(45, 224, 40)" opacity="0.15"></rect><rect width="330" height="3" x="446" y="402.5" rx="1.5" transform="rotate(45, 611, 404)" opacity="0.78"></rect><rect width="218" height="3" x="402" y="214.5" rx="1.5" transform="rotate(45, 511, 216)" opacity="0.58"></rect><rect width="119" height="3" x="119.5" y="427.5" rx="1.5" transform="rotate(45, 179, 429)" opacity="0.73"></rect><rect width="163" height="3" x="644.5" y="766.5" rx="1.5" transform="rotate(45, 726, 768)" opacity="0.15"></rect><rect width="424" height="3" x="545" y="33.5" rx="1.5" transform="rotate(45, 757, 35)" opacity="0.11"></rect><rect width="378" height="3" x="515" y="545.5" rx="1.5" transform="rotate(45, 704, 547)" opacity="0.09"></rect><rect width="108" height="3" x="59" y="195.5" rx="1.5" transform="rotate(45, 113, 197)" opacity="0.37"></rect><rect width="107" height="3" x="631.5" y="29.5" rx="1.5" transform="rotate(45, 685, 31)" opacity="0.50"></rect><rect width="280" height="3" x="281" y="540.5" rx="1.5" transform="rotate(45, 421, 542)" opacity="0.61"></rect><rect width="219" height="3" x="216.5" y="264.5" rx="1.5" transform="rotate(45, 326, 266)" opacity="0.31"></rect><rect width="41" height="3" x="710.5" y="382.5" rx="1.5" transform="rotate(45, 731, 384)" opacity="0.78"></rect><rect width="390" height="3" x="487" y="166.5" rx="1.5" transform="rotate(45, 682, 168)" opacity="0.52"></rect><rect width="233" height="3" x="75.5" y="532.5" rx="1.5" transform="rotate(45, 192, 534)" opacity="0.64"></rect><rect width="301" height="3" x="-99.5" y="292.5" rx="1.5" transform="rotate(45, 51, 294)" opacity="0.43"></rect><rect width="447" height="3" x="74.5" y="473.5" rx="1.5" transform="rotate(45, 298, 475)" opacity="0.45"></rect><rect width="95" height="3" x="733.5" y="98.5" rx="1.5" transform="rotate(45, 781, 100)" opacity="0.40"></rect><rect width="383" height="3" x="329.5" y="314.5" rx="1.5" transform="rotate(45, 521, 316)" opacity="0.63"></rect><rect width="613" height="3" x="193.5" y="615.5" rx="1.5" transform="rotate(45, 500, 617)" opacity="0.83"></rect><rect width="95" height="3" x="-26.5" y="94.5" rx="1.5" transform="rotate(45, 21, 96)" opacity="0.14"></rect><rect width="332" height="3" x="-127" y="175.5" rx="1.5" transform="rotate(45, 39, 177)" opacity="0.26"></rect><rect width="253" height="3" x="605.5" y="113.5" rx="1.5" transform="rotate(45, 732, 115)" opacity="0.71"></rect><rect width="481" height="3" x="277.5" y="38.5" rx="1.5" transform="rotate(45, 518, 40)" opacity="0.62"></rect><rect width="47" height="3" x="646.5" y="609.5" rx="1.5" transform="rotate(45, 670, 611)" opacity="0.48"></rect><rect width="216" height="3" x="276" y="431.5" rx="1.5" transform="rotate(45, 384, 433)" opacity="0.50"></rect><rect width="296" height="3" x="-77" y="124.5" rx="1.5" transform="rotate(45, 71, 126)" opacity="0.69"></rect><rect width="178" height="3" x="590" y="458.5" rx="1.5" transform="rotate(45, 679, 460)" opacity="0.81"></rect><rect width="453" height="3" x="-70.5" y="252.5" rx="1.5" transform="rotate(45, 156, 254)" opacity="0.84"></rect><rect width="153" height="3" x="195.5" y="352.5" rx="1.5" transform="rotate(45, 272, 354)" opacity="0.40"></rect><rect width="173" height="3" x="575.5" y="749.5" rx="1.5" transform="rotate(45, 662, 751)" opacity="0.66"></rect><rect width="103" height="3" x="289.5" y="51.5" rx="1.5" transform="rotate(45, 341, 53)" opacity="0.67"></rect><rect width="353" height="3" x="585.5" y="679.5" rx="1.5" transform="rotate(45, 762, 681)" opacity="0.10"></rect><rect width="398" height="3" x="562" y="294.5" rx="1.5" transform="rotate(45, 761, 296)" opacity="0.98"></rect><rect width="325" height="3" x="412.5" y="290.5" rx="1.5" transform="rotate(45, 575, 292)" opacity="0.22"></rect><rect width="295" height="3" x="444.5" y="607.5" rx="1.5" transform="rotate(45, 592, 609)" opacity="0.42"></rect><rect width="500" height="3" x="-69" y="330.5" rx="1.5" transform="rotate(45, 181, 332)" opacity="0.20"></rect><rect width="611" height="3" x="-49.5" y="215.5" rx="1.5" transform="rotate(45, 256, 217)" opacity="0.19"></rect><rect width="202" height="3" x="475" y="729.5" rx="1.5" transform="rotate(45, 576, 731)" opacity="0.60"></rect><rect width="361" height="3" x="-125.5" y="460.5" rx="1.5" transform="rotate(45, 55, 462)" opacity="0.87"></rect><rect width="693" height="3" x="40.5" y="684.5" rx="1.5" transform="rotate(45, 387, 686)" opacity="0.43"></rect><rect width="363" height="3" x="113.5" y="600.5" rx="1.5" transform="rotate(45, 295, 602)" opacity="0.99"></rect><rect width="363" height="3" x="-102.5" y="535.5" rx="1.5" transform="rotate(45, 79, 537)" opacity="0.95"></rect><rect width="373" height="3" x="350.5" y="387.5" rx="1.5" transform="rotate(45, 537, 389)" opacity="0.62"></rect><rect width="253" height="3" x="-53.5" y="31.5" rx="1.5" transform="rotate(45, 73, 33)" opacity="0.96"></rect><rect width="378" height="3" x="439" y="289.5" rx="1.5" transform="rotate(45, 628, 291)" opacity="0.71"></rect><rect width="98" height="3" x="420" y="743.5" rx="1.5" transform="rotate(45, 469, 745)" opacity="0.69"></rect><rect width="243" height="3" x="26.5" y="101.5" rx="1.5" transform="rotate(45, 148, 103)" opacity="0.20"></rect><rect width="121" height="3" x="611.5" y="352.5" rx="1.5" transform="rotate(45, 672, 354)" opacity="0.22"></rect><rect width="310" height="3" x="619" y="413.5" rx="1.5" transform="rotate(45, 774, 415)" opacity="0.13"></rect><rect width="153" height="3" x="525.5" y="193.5" rx="1.5" transform="rotate(45, 602, 195)" opacity="0.24"></rect><rect width="308" height="3" x="-123" y="230.5" rx="1.5" transform="rotate(45, 31, 232)" opacity="0.47"></rect><rect width="557" height="3" x="-103.5" y="688.5" rx="1.5" transform="rotate(45, 175, 690)" opacity="0.08"></rect><rect width="386" height="3" x="-137" y="629.5" rx="1.5" transform="rotate(45, 56, 631)" opacity="0.88"></rect><rect width="168" height="3" x="679" y="592.5" rx="1.5" transform="rotate(45, 763, 594)" opacity="0.26"></rect><rect width="483" height="3" x="198.5" y="78.5" rx="1.5" transform="rotate(45, 440, 80)" opacity="0.52"></rect><rect width="443" height="3" x="217.5" y="206.5" rx="1.5" transform="rotate(45, 439, 208)" opacity="0.39"></rect><rect width="464" height="3" x="421" y="95.5" rx="1.5" transform="rotate(45, 653, 97)" opacity="0.59"></rect><rect width="475" height="3" x="49.5" y="744.5" rx="1.5" transform="rotate(45, 287, 746)" opacity="0.65"></rect><rect width="72" height="3" x="331" y="339.5" rx="1.5" transform="rotate(45, 367, 341)" opacity="0.72"></rect><rect width="212" height="3" x="500" y="33.5" rx="1.5" transform="rotate(45, 606, 35)" opacity="0.07"></rect><rect width="236" height="3" x="-92" y="404.5" rx="1.5" transform="rotate(45, 26, 406)" opacity="0.76"></rect><rect width="439" height="3" x="336.5" y="117.5" rx="1.5" transform="rotate(45, 556, 119)" opacity="0.94"></rect><rect width="103" height="3" x="635.5" y="258.5" rx="1.5" transform="rotate(45, 687, 260)" opacity="0.99"></rect><rect width="384" height="3" x="58" y="130.5" rx="1.5" transform="rotate(45, 250, 132)" opacity="0.86"></rect><rect width="195" height="3" x="678.5" y="755.5" rx="1.5" transform="rotate(45, 776, 757)" opacity="0.88"></rect><rect width="58" height="3" x="40" y="747.5" rx="1.5" transform="rotate(45, 69, 749)" opacity="0.37"></rect><rect width="270" height="3" x="-99" y="349.5" rx="1.5" transform="rotate(45, 36, 351)" opacity="0.53"></rect><rect width="551" height="3" x="357.5" y="525.5" rx="1.5" transform="rotate(45, 633, 527)" opacity="0.49"></rect><rect width="412" height="3" x="-105" y="373.5" rx="1.5" transform="rotate(45, 101, 375)" opacity="0.75"></rect><rect width="351" height="3" x="306.5" y="447.5" rx="1.5" transform="rotate(45, 482, 449)" opacity="0.67"></rect><rect width="353" height="3" x="509.5" y="668.5" rx="1.5" transform="rotate(45, 686, 670)" opacity="0.12"></rect><rect width="329" height="3" x="270.5" y="292.5" rx="1.5" transform="rotate(45, 435, 294)" opacity="0.43"></rect><rect width="119" height="3" x="700.5" y="196.5" rx="1.5" transform="rotate(45, 760, 198)" opacity="0.71"></rect></g></svg>